<svg xmlns="http://www.w3.org/2000/svg" xmlns:xlink="http://www.w3.org/1999/xlink" xmlns:lucid="lucid" width="1320" height="663"><g transform="translate(1308 -1313)" lucid:page-tab-id="0_0"><path d="M-1500-500h3000v2500h-3000z" fill="#fff"/><path d="M-1240 1406a6 6 0 0 1 6-6H-74.8a6 6 0 0 1 6 6v488a6 6 0 0 1-6 6H-1234a6 6 0 0 1-6-6z" fill="#fff"/><path d="M-1221.92 1400h8.05m8.04 0h8.05m8.06 0h8.05m8.05 0h8.04m8.05 0h8.06m8.05 0h8.05m8.04 0h8.05m8.06 0h8.05m8.05 0h8.04m8.05 0h8.06m8.05 0h8.04m8.05 0h8.05m8.05 0h8.05m8.05 0h8.05m8.05 0h8.05m8.05 0h8.05m8.05 0h8.05m8.05 0h8.05m8.05 0h8.05m8.05 0h8.05m8.05 0h8.05m8.05 0h8.05m8.05 0h8.05m8.05 0h8.05m8.05 0h8.05m8.05 0h8.05m8.05 0h8.05m8.05 0h8.05m8.05 0h8.05m8.05 0h8.05m8.05 0h8.05m8.05 0h8.05m8.05 0h8.05m8.05 0h8.05m8.05 0h8.05m8.05 0h8.05m8.05 0h8.05m8.05 0h8.05m8.05 0h8.05m8.05 0h8.05m8.05 0h8.05m8.05 0h8.05m8.05 0h8.05m8.05 0h8.05m8.05 0h8.05m8.05 0h8.05m8.05 0h8.05m8.05 0h8.05m8.05 0h8.05m8.05 0h8.05m8.05 0h8.05m8.05 0h8.05m8.05 0h8.05m8.05 0h8.05m8.05 0h8.05m8.05 0h8.05m8.05 0h8.05m8.05 0h8.05m8.05 0h8.05m8.05 0h8.05m8.05 0h8.05m8.05 0h8.05m8.05 0h8.05m8.05 0h8.05m8.05 0h8.05m8.05 0h8.05m8.05 0h8.05m8.05 0h8.05m8.05 0h8.05m8.05 0h8.05m8.05 0h8.05m8.05 0h4.03a6 6 0 0 1 6 6v4.07m0 8.13v8.13m0 8.14v8.13m0 8.13v8.14m0 8.13v8.13m0 8.14v8.13m0 8.13v8.14m0 8.13v8.13m0 8.14v8.13m0 8.13v8.14m0 8.13v8.13m0 8.14v8.13m0 8.13v8.14m0 8.13v8.13m0 8.14v8.13m0 8.13v8.14m0 8.13v8.13m0 8.14v8.13m0 8.13v8.14m0 8.13v8.13m0 8.14v8.13m0 8.13v8.14m0 8.13v8.13m0 8.14v8.13m0 8.13v8.14m0 8.13v8.13m0 8.14v8.13m0 8.13v8.14m0 8.13v8.13m0 8.14v8.13m0 8.13v4.07a6 6 0 0 1-6 6h-4.03m-8.05 0h-8.05m-8.05 0h-8.05m-8.05 0h-8.05m-8.05 0h-8.05m-8.05 0h-8.05m-8.05 0h-8.05m-8.05 0h-8.05m-8.05 0h-8.05m-8.05 0h-8.05m-8.05 0h-8.05m-8.05 0h-8.05m-8.05 0h-8.05m-8.05 0h-8.05m-8.05 0h-8.05m-8.05 0h-8.05m-8.05 0h-8.05m-8.05 0h-8.05m-8.05 0h-8.05m-8.05 0h-8.05m-8.05 0h-8.05m-8.05 0h-8.05m-8.05 0h-8.05m-8.05 0h-8.05m-8.05 0h-8.05m-8.05 0h-8.05m-8.05 0h-8.05m-8.05 0h-8.05m-8.05 0h-8.05m-8.05 0h-8.05m-8.05 0h-8.05m-8.05 0h-8.05m-8.05 0h-8.05m-8.05 0h-8.05m-8.05 0h-8.05m-8.05 0h-8.05m-8.05 0h-8.05m-8.05 0h-8.05m-8.05 0h-8.05m-8.05 0h-8.05m-8.05 0h-8.05m-8.05 0h-8.05m-8.05 0h-8.05m-8.05 0h-8.05m-8.05 0h-8.05m-8.05 0h-8.05m-8.05 0h-8.05m-8.05 0h-8.05m-8.05 0h-8.05m-8.05 0h-8.05m-8.05 0h-8.05m-8.05 0h-8.05m-8.05 0h-8.05m-8.05 0h-8.05m-8.05 0h-8.05m-8.05 0h-8.05m-8.05 0h-8.05m-8.05 0h-8.05m-8.05 0h-8.05m-8.05 0h-8.05m-8.05 0h-8.05m-8.05 0h-8.04m-8.05 0h-8.06m-8.05 0h-8.05m-8.04 0h-8.05m-8.06 0h-8.05m-8.05 0h-8.04m-8.05 0h-8.06m-8.05 0h-8.05m-8.04 0h-8.05m-8.06 0h-8.05m-8.05 0h-8.04m-8.05 0h-4.03a6 6 0 0 1-6-6v-4.07m0-8.13v-8.13m0-8.14v-8.13m0-8.13v-8.14m0-8.13v-8.13m0-8.14v-8.13m0-8.13v-8.14m0-8.13v-8.13m0-8.14v-8.13m0-8.13v-8.14m0-8.13v-8.13m0-8.14V1711m0-8.13v-8.14m0-8.13v-8.13m0-8.14v-8.13m0-8.13v-8.14m0-8.13v-8.13m0-8.14v-8.13m0-8.13v-8.14m0-8.13v-8.13m0-8.14v-8.13m0-8.13v-8.14m0-8.13v-8.13m0-8.14v-8.13m0-8.13v-8.14m0-8.13v-8.13m0-8.14V1467m0-8.13v-8.14m0-8.13v-8.13m0-8.14v-8.13m0-8.13V1406a6 6 0 0 1 6-6h4.03" stroke="#000" stroke-width="2" fill="none"/><use xlink:href="#a" transform="matrix(1,0,0,1,-1235,1405) translate(0 21.52777777777778)"/><use xlink:href="#b" transform="matrix(1,0,0,1,-1235,1405) translate(62.87977430555555 21.52777777777778)"/><path d="M-408.8 1506a6 6 0 0 1 6-6h248a6 6 0 0 1 6 6v348a6 6 0 0 1-6 6h-248a6 6 0 0 1-6-6z" fill="#fff"/><path d="M-391.18 1500h7.75m7.75 0h7.75m7.75 0h7.75m7.75 0h7.75m7.75 0h7.75m7.75 0h7.75m7.75 0h7.75m7.75 0h7.75m7.75 0h7.75m7.75 0h7.75m7.75 0h7.75m7.75 0h7.75m7.75 0h7.75m7.75 0h7.75m7.75 0h7.75m7.75 0h3.88a6 6 0 0 1 6 6v3.95m0 7.9v7.92m0 7.9v7.92m0 7.9v7.9m0 7.92v7.9m0 7.92v7.9m0 7.9v7.92m0 7.9v7.92m0 7.9v7.92m0 7.9v7.92m0 7.9v7.92m0 7.9v7.9m0 7.92v7.9m0 7.92v7.9m0 7.92v7.9m0 7.92v7.9m0 7.92v7.9m0 7.9v7.92m0 7.9v7.92m0 7.9v7.92m0 7.9v7.92m0 7.9v7.92m0 7.9v3.96a6 6 0 0 1-6 6h-3.88m-7.75 0h-7.75m-7.75 0h-7.75m-7.75 0h-7.75m-7.75 0h-7.75m-7.75 0h-7.75m-7.75 0h-7.75m-7.75 0h-7.75m-7.75 0h-7.75m-7.75 0h-7.75m-7.75 0h-7.75m-7.75 0h-7.75m-7.75 0h-7.75m-7.75 0h-7.75m-7.75 0h-7.75m-7.75 0h-7.75m-7.75 0h-3.87a6 6 0 0 1-6-6v-3.95m0-7.9v-7.92m0-7.9v-7.92m0-7.9v-7.9m0-7.92v-7.9m0-7.92v-7.9m0-7.9v-7.92m0-7.9v-7.92m0-7.9v-7.92m0-7.9v-7.92m0-7.9v-7.92m0-7.9v-7.9m0-7.92v-7.9m0-7.92v-7.9m0-7.92v-7.9m0-7.92v-7.9m0-7.92v-7.9m0-7.9v-7.92m0-7.9v-7.92m0-7.9v-7.92m0-7.9v-7.92m0-7.9v-7.92m0-7.9V1506a6 6 0 0 1 6-6h3.87" stroke="#000" stroke-width="2" fill="none"/><use xlink:href="#c" transform="matrix(1,0,0,1,-403.8032786885244,1505) translate(0 21.52777777777778)"/><path d="M-682.14 1506a6 6 0 0 1 6-6h261.34a6 6 0 0 1 6 6v348a6 6 0 0 1-6 6h-261.34a6 6 0 0 1-6-6z" fill="#fff"/><path d="M-663.9 1500h8.18m8.17 0h8.16m8.18 0h8.17m8.16 0h8.18m8.17 0h8.16m8.18 0h8.17m8.16 0h8.18m8.17 0h8.16m8.18 0h8.17m8.16 0h8.18m8.17 0h8.16m8.18 0h8.17m8.16 0h8.18m8.17 0h8.16m8.18 0h8.17m8.16 0h4.1a6 6 0 0 1 6 6v3.95m0 7.9v7.92m0 7.9v7.92m0 7.9v7.9m0 7.92v7.9m0 7.92v7.9m0 7.9v7.92m0 7.9v7.92m0 7.9v7.92m0 7.9v7.92m0 7.9v7.92m0 7.9v7.9m0 7.92v7.9m0 7.92v7.9m0 7.92v7.9m0 7.92v7.9m0 7.92v7.9m0 7.9v7.92m0 7.9v7.92m0 7.9v7.92m0 7.9v7.92m0 7.9v7.92m0 7.9v3.96a6 6 0 0 1-6 6h-4.1m-8.15 0h-8.17m-8.17 0h-8.15m-8.17 0h-8.17m-8.15 0h-8.17m-8.17 0h-8.15m-8.17 0h-8.17m-8.15 0h-8.17m-8.17 0h-8.15m-8.17 0h-8.17m-8.15 0h-8.17m-8.17 0h-8.15m-8.17 0h-8.17m-8.15 0h-8.17m-8.17 0h-8.15m-8.17 0h-8.17m-8.15 0h-4.1a6 6 0 0 1-6-6v-3.95m0-7.9v-7.92m0-7.9v-7.92m0-7.9v-7.9m0-7.92v-7.9m0-7.92v-7.9m0-7.9v-7.92m0-7.9v-7.92m0-7.9v-7.92m0-7.9v-7.92m0-7.9v-7.92m0-7.9v-7.9m0-7.92v-7.9m0-7.92v-7.9m0-7.92v-7.9m0-7.92v-7.9m0-7.92v-7.9m0-7.9v-7.92m0-7.9v-7.92m0-7.9v-7.92m0-7.9v-7.92m0-7.9v-7.92m0-7.9V1506a6 6 0 0 1 6-6h4.1" stroke="#000" stroke-width="2" fill="none"/><use xlink:href="#c" transform="matrix(1,0,0,1,-677.1366120218577,1505) translate(0 21.52777777777778)"/><path d="M-1188.8 1506a6 6 0 0 1 6-6h494.66a6 6 0 0 1 6 6v287.33a6 6 0 0 1-6 6h-494.66a6 6 0 0 1-6-6z" fill="#fff"/><path d="M-1170.84 1500h7.98m7.98 0h7.98m7.98 0h7.98m7.98 0h7.97m8 0h7.97m7.98 0h7.98m7.98 0h7.98m7.98 0h7.98m7.98 0h7.98m7.98 0h7.98m7.97 0h7.98m8 0h7.97m7.98 0h7.98m7.98 0h7.98m7.98 0h7.98m7.98 0h7.98m7.98 0h7.98m7.97 0h7.98m8 0h7.97m7.98 0h7.98m7.97 0h7.98m7.98 0h7.98m7.98 0h7.98m7.97 0h7.98m7.98 0h7.98m8 0h7.97m7.98 0h7.98m7.97 0h7.98m7.98 0h7.98m7.98 0h7.98m7.97 0h4a6 6 0 0 1 6 6v4m0 7.97v7.98m0 7.98v8m0 7.97v7.98m0 7.98v7.98m0 7.98v8m0 7.97v7.97m0 7.98v7.98m0 7.98v8m0 7.98v7.98m0 7.98v7.98m0 7.98v7.98m0 8v7.97m0 7.98v7.98m0 8v7.97m0 7.98v7.98m0 8v7.97m0 7.98v7.98m0 7.98v4a6 6 0 0 1-6 6h-4m-7.97 0h-7.98m-7.98 0h-7.98m-7.98 0H-740m-7.98 0h-7.97m-7.98 0h-7.98m-8 0h-7.97m-7.98 0h-7.98m-7.97 0h-7.98m-7.98 0h-7.98m-7.98 0h-7.98m-7.97 0h-7.98m-7.98 0h-7.98m-8 0h-7.97m-7.97 0h-7.98m-7.98 0h-7.98m-7.98 0h-7.98m-7.98 0h-7.98m-7.97 0h-7.98m-7.98 0h-7.98m-8 0h-7.97m-7.97 0h-7.98m-7.98 0h-7.98m-7.98 0h-7.98m-7.97 0h-8m-7.97 0h-7.98m-7.98 0h-7.98m-8 0h-7.96m-7.98 0h-7.98m-7.98 0h-7.98m-7.98 0h-7.98m-7.97 0h-4a6 6 0 0 1-6-6v-4m0-7.98v-7.98m0-7.98v-7.98m0-8v-7.97m0-7.98v-7.98m0-8v-7.97m0-7.98v-7.98m0-8v-7.97m0-7.98v-7.98m0-7.98v-7.98m0-8v-7.97m0-7.97v-7.98m0-7.98v-7.98m0-8v-7.98m0-7.98v-7.98m0-7.98v-7.98m0-7.98v-8m0-7.97v-7.98m0-7.98v-4a6 6 0 0 1 6-6h4" stroke="#000" stroke-width="2" fill="none"/><use xlink:href="#c" transform="matrix(1,0,0,1,-1183.8032786885244,1505) translate(0 21.52777777777778)"/><path d="M-1108.8 1606a6 6 0 0 1 6-6h148a6 6 0 0 1 6 6v108a6 6 0 0 1-6 6h-148a6 6 0 0 1-6-6z" stroke="#000" stroke-width="2" fill="#fff"/><use xlink:href="#d" transform="matrix(1,0,0,1,-1096.8032786885244,1612) translate(56.747829861111114 57.52777777777778)"/><path d="M-868.8 1606a6 6 0 0 1 6-6h148a6 6 0 0 1 6 6v108a6 6 0 0 1-6 6h-148a6 6 0 0 1-6-6z" stroke="#000" stroke-width="2" fill="#fff"/><use xlink:href="#e" transform="matrix(1,0,0,1,-856.8032786885244,1612) translate(13.37217881944445 57.52777777777778)"/><use xlink:href="#f" transform="matrix(1,0,0,1,-856.8032786885244,1612) translate(65.81358506944444 57.52777777777778)"/><path d="M-628.8 1606a6 6 0 0 1 6-6h148a6 6 0 0 1 6 6v108a6 6 0 0 1-6 6h-148a6 6 0 0 1-6-6z" stroke="#000" stroke-width="2" fill="#fff"/><use xlink:href="#e" transform="matrix(1,0,0,1,-616.8032786885244,1612) translate(26.045789930555557 57.52777777777778)"/><use xlink:href="#g" transform="matrix(1,0,0,1,-616.8032786885244,1612) translate(78.48719618055554 57.52777777777778)"/><path d="M-947.3 1660h61.1" stroke="#3a414a" fill="none"/><path d="M-947.3 1660.47h-.5v-.94h.5z" stroke="#3a414a" stroke-width=".05" fill="#3a414a"/><path d="M-871.42 1660l-14.27 4.63v-9.27z" stroke="#3a414a" fill="#3a414a"/><path d="M-707.3 1660h61.1" stroke="#3a414a" fill="none"/><path d="M-707.3 1660.47h-.5v-.94h.5z" stroke="#3a414a" stroke-width=".05" fill="#3a414a"/><path d="M-631.42 1660l-14.27 4.63v-9.27z" stroke="#3a414a" fill="#3a414a"/><path d="M-368.8 1606a6 6 0 0 1 6-6h148a6 6 0 0 1 6 6v108a6 6 0 0 1-6 6h-148a6 6 0 0 1-6-6z" stroke="#000" stroke-width="2" fill="#fff"/><use xlink:href="#h" transform="matrix(1,0,0,1,-356.8032786885244,1612) translate(22.492187500000007 57.52777777777778)"/><use xlink:href="#g" transform="matrix(1,0,0,1,-356.8032786885244,1612) translate(82.04079861111111 57.52777777777778)"/><path d="M-495.47 1726a6 6 0 0 1 6-6h148a6 6 0 0 1 6 6v108a6 6 0 0 1-6 6h-148a6 6 0 0 1-6-6z" stroke="#000" stroke-width="2" fill="#fff"/><g><use xlink:href="#i" transform="matrix(1,0,0,1,-483.46994535519116,1732) translate(0.6171875 39.52777777777778)"/><use xlink:href="#j" transform="matrix(1,0,0,1,-483.46994535519116,1732) translate(71.14670138888889 39.52777777777778)"/><use xlink:href="#k" transform="matrix(1,0,0,1,-483.46994535519116,1732) translate(34.40625 71.79340277777777)"/></g><defs><path d="M180 0v-1490h224l606 953c40 63 108 177 176 312-27-437-7-821-13-1265h190V0h-226C860-448 622-778 356-1262c27 476 11 792 15 1262H180" id="l"/><path d="M613 24c-304 0-509-231-509-576 0-350 205-580 509-580 305 0 511 230 511 580 0 345-206 576-511 576zm0-161c226 0 329-195 329-415 0-222-103-419-329-419-223 0-326 196-326 419 0 220 103 415 326 415" id="m"/><path d="M577 24c-279 0-473-224-473-580 0-354 195-576 474-576 218 0 287 134 324 193h14v-551h180V0H922v-173h-20C865-111 790 24 577 24zm27-161c203 0 314-172 314-421 0-247-108-413-314-413-212 0-317 181-317 413 0 235 108 421 317 421" id="n"/><path d="M628 24c-324 0-524-230-524-574 0-343 198-582 503-582 237 0 487 146 487 559v75H286c9 234 145 362 343 362 132 0 231-58 273-172l174 48C1024-91 857 24 628 24zM287-650h624c-17-190-120-322-304-322-192 0-309 151-320 322" id="o"/><g id="a"><use transform="matrix(0.010850694444444444,0,0,0.010850694444444444,0,0)" xlink:href="#l"/><use transform="matrix(0.010850694444444444,0,0,0.010850694444444444,16.74262152777778,0)" xlink:href="#m"/><use transform="matrix(0.010850694444444444,0,0,0.010850694444444444,30.06727430555556,0)" xlink:href="#n"/><use transform="matrix(0.010850694444444444,0,0,0.010850694444444444,43.674045138888886,0)" xlink:href="#o"/></g><path d="M545 20c-263 0-445-160-445-446v-80h190v80c0 182 102 279 255 279 152 0 254-97 254-279v-1064h190v1064c0 286-181 446-444 446" id="p"/><path d="M657 26c-323 0-524-166-541-416h195c15 169 171 246 346 246 202 0 356-106 356-265 5-203-294-238-475-293-239-73-380-191-380-389 0-252 224-419 512-419 294 0 499 171 508 396H992c-17-145-151-228-328-228-193 0-321 102-321 242 0 156 175 211 284 241l149 41c160 44 422 134 422 412 0 244-197 432-541 432" id="q"/><g id="b"><use transform="matrix(0.010850694444444444,0,0,0.010850694444444444,0,0)" xlink:href="#p"/><use transform="matrix(0.010850694444444444,0,0,0.010850694444444444,12.684461805555555,0)" xlink:href="#q"/></g><path d="M409 0L70-1118h191c89 329 165 560 243 925 75-353 154-601 240-925h192c85 325 161 564 235 922 77-354 157-598 244-922h191L1267 0h-179c-86-307-176-590-250-913C763-588 675-308 588 0H409" id="r"/><path d="M677 24c-213 0-288-135-325-197h-20V0H158v-1490h180v551h14c37-59 106-193 324-193 279 0 474 222 474 576 0 356-194 580-473 580zm-27-161c209 0 317-186 317-421 0-232-105-413-317-413-206 0-314 166-314 413 0 249 111 421 314 421" id="s"/><path d="M538 24C308 24 148-78 108-271l171-41c32 123 123 178 257 178 156 0 256-77 256-169 0-77-54-128-164-154l-186-44c-203-48-300-148-300-305 0-192 176-326 414-326 230 0 351 112 402 269l-163 42c-31-80-94-158-238-158-133 0-233 69-233 162 0 83 57 129 188 160l169 40c203 48 298 149 298 302 0 196-179 339-441 339" id="t"/><path d="M158 0v-1118h174v172h12c41-113 157-188 290-188 26 0 70 2 91 3v181c-11-2-60-10-108-10-161 0-279 109-279 260V0H158" id="u"/><path d="M481 0L54-1118h197c107 314 236 620 325 951 87-331 217-637 324-951h197L670 0H481" id="v"/><g id="c"><use transform="matrix(0.010850694444444444,0,0,0.010850694444444444,0,0)" xlink:href="#r"/><use transform="matrix(0.010850694444444444,0,0,0.010850694444444444,17.784288194444446,0)" xlink:href="#o"/><use transform="matrix(0.010850694444444444,0,0,0.010850694444444444,30.740017361111114,0)" xlink:href="#s"/><use transform="matrix(0.010850694444444444,0,0,0.010850694444444444,44.34678819444444,0)" xlink:href="#t"/><use transform="matrix(0.010850694444444444,0,0,0.010850694444444444,56.076388888888886,0)" xlink:href="#o"/><use transform="matrix(0.010850694444444444,0,0,0.010850694444444444,69.03211805555556,0)" xlink:href="#u"/><use transform="matrix(0.010850694444444444,0,0,0.010850694444444444,77.74522569444446,0)" xlink:href="#v"/><use transform="matrix(0.010850694444444444,0,0,0.010850694444444444,89.80034722222224,0)" xlink:href="#o"/><use transform="matrix(0.010850694444444444,0,0,0.010850694444444444,102.7560763888889,0)" xlink:href="#u"/></g><path d="M763 24c-353 0-583-224-583-531v-983h190v968c0 214 149 370 393 370 243 0 391-156 391-370v-968h190v983c0 307-230 531-581 531" id="w"/><path d="M370-1490V0H180v-1490h190" id="x"/><g id="d"><use transform="matrix(0.010850694444444444,0,0,0.010850694444444444,0,0)" xlink:href="#w"/><use transform="matrix(0.010850694444444444,0,0,0.010850694444444444,16.536458333333332,0)" xlink:href="#x"/></g><path d="M537 14c-226 0-379-139-379-422v-710h180v695c0 172 97 275 253 275 160 0 281-109 281-300v-670h181V0H879v-209C806-46 684 14 537 14" id="y"/><g id="e"><use transform="matrix(0.010850694444444444,0,0,0.010850694444444444,0,0)" xlink:href="#y"/><use transform="matrix(0.010850694444444444,0,0,0.010850694444444444,13.140190972222221,0)" xlink:href="#t"/><use transform="matrix(0.010850694444444444,0,0,0.010850694444444444,24.869791666666664,0)" xlink:href="#o"/><use transform="matrix(0.010850694444444444,0,0,0.010850694444444444,37.82552083333333,0)" xlink:href="#u"/></g><path d="M613 24c-304 0-509-231-509-576 0-350 205-580 509-580 216 0 392 114 453 309l-173 49c-33-115-133-197-280-197-223 0-326 196-326 419 0 220 103 415 326 415 150 0 252-85 285-206l172 49C1010-95 832 24 613 24" id="z"/><path d="M338-1490V0H158v-1490h180" id="A"/><path d="M158 0v-1118h180V0H158zm91-1301c-68 0-125-53-125-119s57-119 125-119c69 0 126 53 126 119s-57 119-126 119" id="B"/><path d="M338-670V0H158v-1118h173l1 207c72-158 192-221 342-221 226 0 378 139 378 422V0H872v-695c0-172-96-275-252-275-161 0-282 109-282 300" id="C"/><path d="M598-1118v154H368v674c0 100 37 144 132 144 23 0 62-6 92-12L629-6c-37 13-88 20-134 20-193 0-307-107-307-290v-688H20v-154h168v-266h180v266h230" id="D"/><g id="f"><use transform="matrix(0.010850694444444444,0,0,0.010850694444444444,0,0)" xlink:href="#z"/><use transform="matrix(0.010850694444444444,0,0,0.010850694444444444,12.6953125,0)" xlink:href="#A"/><use transform="matrix(0.010850694444444444,0,0,0.010850694444444444,18.077256944444443,0)" xlink:href="#B"/><use transform="matrix(0.010850694444444444,0,0,0.010850694444444444,23.45920138888889,0)" xlink:href="#o"/><use transform="matrix(0.010850694444444444,0,0,0.010850694444444444,36.41493055555555,0)" xlink:href="#C"/><use transform="matrix(0.010850694444444444,0,0,0.010850694444444444,49.54427083333333,0)" xlink:href="#D"/></g><path d="M471 26C259 26 90-98 90-318c0-256 228-303 435-329 202-27 287-16 287-108 0-139-79-219-234-219-161 0-248 86-283 164l-173-57c86-203 278-265 451-265 150 0 419 46 419 395V0H815v-152h-12C765-73 660 26 471 26zm31-159c199 0 310-134 310-271v-155c-30 35-226 55-295 64-131 17-246 59-246 186 0 116 97 176 231 176" id="E"/><path d="M158 418v-1536h174v179h20c37-59 106-193 324-193 279 0 474 222 474 576 0 356-194 580-473 580-213 0-288-135-325-197h-14v591H158zm492-555c209 0 317-186 317-421 0-232-105-413-317-413-206 0-314 166-314 413 0 249 111 421 314 421" id="F"/><g id="g"><use transform="matrix(0.010850694444444444,0,0,0.010850694444444444,0,0)" xlink:href="#E"/><use transform="matrix(0.010850694444444444,0,0,0.010850694444444444,12.47829861111111,0)" xlink:href="#F"/><use transform="matrix(0.010850694444444444,0,0,0.010850694444444444,26.085069444444443,0)" xlink:href="#B"/></g><g id="h"><use transform="matrix(0.010850694444444444,0,0,0.010850694444444444,0,0)" xlink:href="#n"/><use transform="matrix(0.010850694444444444,0,0,0.010850694444444444,13.606770833333332,0)" xlink:href="#E"/><use transform="matrix(0.010850694444444444,0,0,0.010850694444444444,26.085069444444443,0)" xlink:href="#F"/><use transform="matrix(0.010850694444444444,0,0,0.010850694444444444,39.69184027777777,0)" xlink:href="#F"/></g><g id="i"><use transform="matrix(0.010850694444444444,0,0,0.010850694444444444,0,0)" xlink:href="#q"/><use transform="matrix(0.010850694444444444,0,0,0.010850694444444444,14.2578125,0)" xlink:href="#F"/><use transform="matrix(0.010850694444444444,0,0,0.010850694444444444,27.864583333333332,0)" xlink:href="#A"/><use transform="matrix(0.010850694444444444,0,0,0.010850694444444444,33.24652777777778,0)" xlink:href="#B"/><use transform="matrix(0.010850694444444444,0,0,0.010850694444444444,38.62847222222222,0)" xlink:href="#z"/><use transform="matrix(0.010850694444444444,0,0,0.010850694444444444,51.32378472222222,0)" xlink:href="#o"/></g><path d="M458 0L52-1490h194c108 439 233 855 324 1313 92-459 221-873 331-1313h216c110 438 234 854 330 1307 92-455 216-869 323-1307h196L1558 0h-221l-256-944c-26-95-50-200-73-331-22 122-44 223-73 331L680 0H458" id="G"/><g id="j"><use transform="matrix(0.010850694444444444,0,0,0.010850694444444444,0,0)" xlink:href="#G"/><use transform="matrix(0.010850694444444444,0,0,0.010850694444444444,20.768229166666668,0)" xlink:href="#E"/><use transform="matrix(0.010850694444444444,0,0,0.010850694444444444,33.24652777777778,0)" xlink:href="#A"/><use transform="matrix(0.010850694444444444,0,0,0.010850694444444444,38.62847222222222,0)" xlink:href="#A"/><use transform="matrix(0.010850694444444444,0,0,0.010850694444444444,44.010416666666664,0)" xlink:href="#o"/><use transform="matrix(0.010850694444444444,0,0,0.010850694444444444,56.96614583333333,0)" xlink:href="#D"/></g><path d="M180 0v-1490h190c0 262 1 526-3 784 217-279 467-523 702-784h249L716-845 1319 0h-225L585-716 370-489V0H180" id="H"/><g id="k"><use transform="matrix(0.010850694444444444,0,0,0.010850694444444444,0,0)" xlink:href="#H"/><use transform="matrix(0.010850694444444444,0,0,0.010850694444444444,14.051649305555555,0)" xlink:href="#o"/><use transform="matrix(0.010850694444444444,0,0,0.010850694444444444,27.00737847222222,0)" xlink:href="#u"/><use transform="matrix(0.010850694444444444,0,0,0.010850694444444444,35.72048611111111,0)" xlink:href="#C"/><use transform="matrix(0.010850694444444444,0,0,0.010850694444444444,48.849826388888886,0)" xlink:href="#o"/><use transform="matrix(0.010850694444444444,0,0,0.010850694444444444,61.80555555555555,0)" xlink:href="#A"/></g></defs></g></svg>